<svg version="1.1" id="Layer_1" xmlns="http://www.w3.org/2000/svg" xmlns:xlink="http://www.w3.org/1999/xlink" x="0px" y="0px"
	 width="100%" viewBox="0 0 512 512" enable-background="new 0 0 512 512" xml:space="preserve">
<path fill="#0077B5" opacity="1.000000" stroke="none" 
	d="
M1.000001,460.000000 
	C1.000000,324.976685 1.000000,189.953354 1.370974,54.644867 
	C2.161916,53.532047 2.737013,52.747116 2.978525,51.870308 
	C6.457973,39.238197 12.854692,28.214975 22.415859,19.377617 
	C31.024233,11.420919 41.015942,5.503002 52.682995,2.872184 
	C53.234669,2.747786 53.566036,1.646398 54.000000,1.000000 
	C189.023331,1.000000 324.046661,1.000000 459.355255,1.371001 
	C460.136749,2.133708 460.582764,2.766217 461.136597,2.881772 
	C473.579437,5.477990 484.048767,11.985436 492.874542,20.636410 
	C501.604736,29.193661 507.816162,39.670467 511.047302,51.690437 
	C511.284180,52.571590 512.330200,53.235233 513.000000,54.000004 
	C513.000000,189.023331 513.000000,324.046661 512.629578,459.354370 
	C511.866882,460.134613 511.234283,460.579773 511.117584,461.133606 
	C508.459839,473.748138 501.834900,484.328339 492.998016,493.234100 
	C484.508820,501.789459 474.145050,507.854065 462.305695,511.043488 
	C461.425323,511.280640 460.763428,512.328857 460.000000,513.000000 
	C324.976685,513.000000 189.953354,513.000000 54.645630,512.629517 
	C53.865074,511.866852 53.420013,511.236542 52.865223,511.117432 
	C40.271477,508.414337 29.713314,501.820618 20.776903,492.971130 
	C12.191807,484.469513 6.203331,474.108704 2.954062,462.308960 
	C2.711156,461.426849 1.670048,460.764496 1.000001,460.000000 
M273.718719,218.545807 
	C273.712219,204.770096 271.600037,202.666504 257.770508,202.666779 
	C244.439453,202.667053 231.108231,202.628540 217.777405,202.684341 
	C209.439102,202.719254 206.010818,206.210312 206.008774,214.625305 
	C205.993362,278.114441 205.991821,341.603577 206.010757,405.092712 
	C206.013214,413.328613 209.676270,416.968719 217.913391,416.990387 
	C231.744263,417.026794 245.575302,417.001831 259.406281,417.000061 
	C270.622772,416.998657 273.495667,414.102936 273.498138,402.740875 
	C273.505157,370.579712 273.425201,338.418274 273.540405,306.257538 
	C273.583496,294.227112 276.291382,282.782104 282.958008,272.586517 
	C291.202118,259.978424 303.300934,256.080627 317.655640,258.009949 
	C330.787476,259.774933 339.627777,267.510834 342.677979,279.975342 
	C345.256500,290.512543 346.392303,301.613403 346.560486,312.489685 
	C347.037170,343.309875 346.662506,374.142822 346.685852,404.970703 
	C346.692413,413.614655 350.185333,416.980255 358.902893,416.993835 
	C373.900299,417.017181 388.897827,417.023682 403.895172,416.991272 
	C412.401733,416.972870 415.967834,413.366302 415.967010,404.733612 
	C415.963654,369.573029 416.054596,334.411682 415.838867,299.252258 
	C415.740601,283.243073 414.396210,267.302551 409.926971,251.815689 
	C403.484924,229.492813 391.076630,212.197937 368.339355,204.191772 
	C352.611359,198.653656 336.358551,198.336792 319.986450,200.588196 
	C301.439484,203.138657 286.255676,211.425201 275.286743,226.880157 
	C275.067902,227.188492 274.595306,227.316742 273.718719,227.842056 
	C273.718719,224.727203 273.718719,222.101425 273.718719,218.545807 
M107.967911,213.915375 
	C107.966469,277.238220 107.957771,340.561066 107.971642,403.883911 
	C107.973656,413.099487 111.855141,416.978180 121.014458,416.995941 
	C134.178894,417.021454 147.343414,417.004028 160.507904,417.002258 
	C172.304779,417.000702 175.584259,413.714569 175.585785,401.842346 
	C175.591400,358.182922 175.588333,314.523468 175.587997,270.864044 
	C175.587845,252.367111 175.643524,233.869904 175.560089,215.373352 
	C175.521591,206.837875 171.732391,202.694916 163.660568,202.610062 
	C148.998062,202.455917 134.331680,202.469757 119.668976,202.617981 
	C112.546585,202.689987 109.296486,205.807358 107.967911,213.915375 
M100.850586,155.539536 
	C110.219582,179.268509 135.434631,190.410324 158.396439,180.967407 
	C180.915710,171.706512 191.507126,145.623520 181.825958,123.268639 
	C172.685196,102.161613 148.631073,91.808304 126.957047,99.652069 
	C104.554611,107.759453 93.442886,130.979752 100.850586,155.539536 
z"/>
<path fill="#000000" opacity="1.000000" stroke="none" 
	d="
M513.000000,53.531345 
	C512.330200,53.235233 511.284180,52.571590 511.047302,51.690437 
	C507.816162,39.670467 501.604736,29.193661 492.874542,20.636410 
	C484.048767,11.985436 473.579437,5.477990 461.136597,2.881772 
	C460.582764,2.766217 460.136749,2.133708 459.820251,1.371001 
	C477.593445,1.000000 495.186890,1.000000 513.000000,1.000000 
	C513.000000,18.353611 513.000000,35.708145 513.000000,53.531345 
z"/>
<path fill="#000000" opacity="1.000000" stroke="none" 
	d="
M1.000001,460.468658 
	C1.670048,460.764496 2.711156,461.426849 2.954062,462.308960 
	C6.203331,474.108704 12.191807,484.469513 20.776903,492.971130 
	C29.713314,501.820618 40.271477,508.414337 52.865223,511.117432 
	C53.420013,511.236542 53.865074,511.866852 54.180618,512.629517 
	C36.406567,513.000000 18.813131,513.000000 1.000000,513.000000 
	C1.000000,495.646393 1.000000,478.291840 1.000001,460.468658 
z"/>
<path fill="#000000" opacity="1.000000" stroke="none" 
	d="
M460.468658,513.000000 
	C460.763428,512.328857 461.425323,511.280640 462.305695,511.043488 
	C474.145050,507.854065 484.508820,501.789459 492.998016,493.234100 
	C501.834900,484.328339 508.459839,473.748138 511.117584,461.133606 
	C511.234283,460.579773 511.866882,460.134613 512.629578,459.819397 
	C513.000000,477.593445 513.000000,495.186890 513.000000,513.000000 
	C495.646393,513.000000 478.291840,513.000000 460.468658,513.000000 
z"/>
<path fill="#000000" opacity="1.000000" stroke="none" 
	d="
M53.531342,1.000000 
	C53.566036,1.646398 53.234669,2.747786 52.682995,2.872184 
	C41.015942,5.503002 31.024233,11.420919 22.415859,19.377617 
	C12.854692,28.214975 6.457973,39.238197 2.978525,51.870308 
	C2.737013,52.747116 2.161916,53.532047 1.370974,54.179852 
	C1.000000,36.406563 1.000000,18.813124 1.000000,1.000000 
	C18.353609,1.000000 35.708145,1.000000 53.531342,1.000000 
z"/>
<path fill="#FEFFFF" opacity="1.000000" stroke="none" 
	d="
M273.718719,219.010727 
	C273.718719,222.101425 273.718719,224.727203 273.718719,227.842056 
	C274.595306,227.316742 275.067902,227.188492 275.286743,226.880157 
	C286.255676,211.425201 301.439484,203.138657 319.986450,200.588196 
	C336.358551,198.336792 352.611359,198.653656 368.339355,204.191772 
	C391.076630,212.197937 403.484924,229.492813 409.926971,251.815689 
	C414.396210,267.302551 415.740601,283.243073 415.838867,299.252258 
	C416.054596,334.411682 415.963654,369.573029 415.967010,404.733612 
	C415.967834,413.366302 412.401733,416.972870 403.895172,416.991272 
	C388.897827,417.023682 373.900299,417.017181 358.902893,416.993835 
	C350.185333,416.980255 346.692413,413.614655 346.685852,404.970703 
	C346.662506,374.142822 347.037170,343.309875 346.560486,312.489685 
	C346.392303,301.613403 345.256500,290.512543 342.677979,279.975342 
	C339.627777,267.510834 330.787476,259.774933 317.655640,258.009949 
	C303.300934,256.080627 291.202118,259.978424 282.958008,272.586517 
	C276.291382,282.782104 273.583496,294.227112 273.540405,306.257538 
	C273.425201,338.418274 273.505157,370.579712 273.498138,402.740875 
	C273.495667,414.102936 270.622772,416.998657 259.406281,417.000061 
	C245.575302,417.001831 231.744263,417.026794 217.913391,416.990387 
	C209.676270,416.968719 206.013214,413.328613 206.010757,405.092712 
	C205.991821,341.603577 205.993362,278.114441 206.008774,214.625305 
	C206.010818,206.210312 209.439102,202.719254 217.777405,202.684341 
	C231.108231,202.628540 244.439453,202.667053 257.770508,202.666779 
	C271.600037,202.666504 273.712219,204.770096 273.718719,219.010727 
z"/>
<path fill="#FDFEFF" opacity="1.000000" stroke="none" 
	d="
M107.977180,213.468094 
	C109.296486,205.807358 112.546585,202.689987 119.668976,202.617981 
	C134.331680,202.469757 148.998062,202.455917 163.660568,202.610062 
	C171.732391,202.694916 175.521591,206.837875 175.560089,215.373352 
	C175.643524,233.869904 175.587845,252.367111 175.587997,270.864044 
	C175.588333,314.523468 175.591400,358.182922 175.585785,401.842346 
	C175.584259,413.714569 172.304779,417.000702 160.507904,417.002258 
	C147.343414,417.004028 134.178894,417.021454 121.014458,416.995941 
	C111.855141,416.978180 107.973656,413.099487 107.971642,403.883911 
	C107.957771,340.561066 107.966469,277.238220 107.977180,213.468094 
z"/>
<path fill="#FEFEFF" opacity="1.000000" stroke="none" 
	d="
M100.708832,155.169510 
	C93.442886,130.979752 104.554611,107.759453 126.957047,99.652069 
	C148.631073,91.808304 172.685196,102.161613 181.825958,123.268639 
	C191.507126,145.623520 180.915710,171.706512 158.396439,180.967407 
	C135.434631,190.410324 110.219582,179.268509 100.708832,155.169510 
z"/>
</svg>