<svg version="1.1" id="Layer_1" xmlns="http://www.w3.org/2000/svg" xmlns:xlink="http://www.w3.org/1999/xlink" x="0px" y="0px"
	 width="100%" viewBox="0 0 512 512" enable-background="new 0 0 512 512" xml:space="preserve">
<path fill="#1C8ADB" opacity="1.000000" stroke="none" 
	d="
M1.000000,460.000000 
	C1.000000,324.976685 1.000000,189.953354 1.301133,54.799759 
	C2.054600,54.017136 2.729312,53.425701 2.927118,52.703625 
	C9.997421,26.893677 26.612604,10.560736 52.099022,2.939348 
	C52.858109,2.712352 53.371861,1.664913 54.000000,0.999999 
	C189.023331,1.000000 324.046661,1.000000 459.200378,1.301725 
	C459.983887,2.055316 460.576050,2.726693 461.298889,2.927299 
	C487.035431,10.070005 503.397217,26.655031 511.061829,52.096485 
	C511.290833,52.856636 512.335571,53.371037 513.000000,54.000008 
	C513.000000,189.023331 513.000000,324.046661 512.698730,459.200012 
	C511.945801,459.977905 511.273071,460.564606 511.074677,461.282440 
	C503.951630,487.054962 487.348358,503.413239 461.878662,511.062866 
	C461.126373,511.288818 460.620667,512.335815 460.000000,513.000000 
	C324.976685,513.000000 189.953354,513.000000 54.799812,512.698669 
	C54.182587,511.966492 53.761204,511.290436 53.199139,511.139954 
	C26.969852,504.118683 10.377207,487.401337 2.911007,461.400879 
	C2.738609,460.800507 1.657332,460.461121 1.000000,460.000000 
M360.709442,146.236191 
	C275.741547,176.847702 190.773438,207.458694 105.806137,238.071869 
	C99.702576,240.270950 96.955513,243.449402 97.040634,248.178162 
	C97.129524,253.116486 100.214149,256.233521 106.672310,257.994141 
	C127.695808,263.725555 148.643860,269.756744 169.776657,275.051056 
	C176.654236,276.774109 180.113968,279.963776 182.291672,286.811493 
	C189.800873,310.423859 198.051895,333.801208 206.095093,357.242432 
	C209.847839,368.179474 220.412369,370.849762 229.008682,363.132416 
	C230.496292,361.796936 231.928436,360.399536 233.381958,359.026276 
	C244.387283,348.628571 255.391541,338.229736 266.462158,327.768860 
	C268.125488,328.853180 269.524414,329.734528 270.892395,330.661560 
	C294.190002,346.449890 317.453613,362.288635 340.791199,378.017609 
	C352.301758,385.775482 364.083679,381.153320 367.171600,367.789062 
	C370.355408,354.009674 373.503906,340.221954 376.622314,326.427612 
	C389.866608,267.841400 403.104309,209.253677 416.317383,150.660431 
	C418.517090,140.905838 412.420990,132.736160 402.565338,132.511124 
	C399.825134,132.448563 396.954529,133.256393 394.321716,134.174911 
	C383.329498,138.009781 372.405060,142.038879 360.709442,146.236191 
z"/>
<path fill="#000000" opacity="1.000000" stroke="none" 
	d="
M513.000000,53.531349 
	C512.335571,53.371037 511.290833,52.856636 511.061829,52.096485 
	C503.397217,26.655031 487.035431,10.070005 461.298889,2.927299 
	C460.576050,2.726693 459.983887,2.055316 459.665405,1.301725 
	C477.593445,1.000000 495.186890,1.000000 513.000000,1.000000 
	C513.000000,18.353611 513.000000,35.708145 513.000000,53.531349 
z"/>
<path fill="#000000" opacity="1.000000" stroke="none" 
	d="
M1.000000,460.468658 
	C1.657332,460.461121 2.738609,460.800507 2.911007,461.400879 
	C10.377207,487.401337 26.969852,504.118683 53.199139,511.139954 
	C53.761204,511.290436 54.182587,511.966492 54.334801,512.698669 
	C36.406567,513.000000 18.813131,513.000000 1.000000,513.000000 
	C1.000000,495.646393 1.000000,478.291840 1.000000,460.468658 
z"/>
<path fill="#000000" opacity="1.000000" stroke="none" 
	d="
M460.468689,513.000000 
	C460.620667,512.335815 461.126373,511.288818 461.878662,511.062866 
	C487.348358,503.413239 503.951630,487.054962 511.074677,461.282440 
	C511.273071,460.564606 511.945801,459.977905 512.698730,459.665039 
	C513.000000,477.593445 513.000000,495.186890 513.000000,513.000000 
	C495.646393,513.000000 478.291840,513.000000 460.468689,513.000000 
z"/>
<path fill="#000000" opacity="1.000000" stroke="none" 
	d="
M53.531342,0.999999 
	C53.371861,1.664913 52.858109,2.712352 52.099022,2.939348 
	C26.612604,10.560736 9.997421,26.893677 2.927118,52.703625 
	C2.729312,53.425701 2.054600,54.017136 1.301133,54.334743 
	C1.000000,36.406563 1.000000,18.813124 1.000000,1.000000 
	C18.353609,1.000000 35.708145,1.000000 53.531342,0.999999 
z"/>
<path fill="#FEFEFF" opacity="1.000000" stroke="none" 
	d="
M361.082611,146.116486 
	C372.405060,142.038879 383.329498,138.009781 394.321716,134.174911 
	C396.954529,133.256393 399.825134,132.448563 402.565338,132.511124 
	C412.420990,132.736160 418.517090,140.905838 416.317383,150.660431 
	C403.104309,209.253677 389.866608,267.841400 376.622314,326.427612 
	C373.503906,340.221954 370.355408,354.009674 367.171600,367.789062 
	C364.083679,381.153320 352.301758,385.775482 340.791199,378.017609 
	C317.453613,362.288635 294.190002,346.449890 270.892395,330.661560 
	C269.524414,329.734528 268.125488,328.853180 266.462158,327.768860 
	C255.391541,338.229736 244.387283,348.628571 233.381958,359.026276 
	C231.928436,360.399536 230.496292,361.796936 229.008682,363.132416 
	C220.412369,370.849762 209.847839,368.179474 206.095093,357.242432 
	C198.051895,333.801208 189.800873,310.423859 182.291672,286.811493 
	C180.113968,279.963776 176.654236,276.774109 169.776657,275.051056 
	C148.643860,269.756744 127.695808,263.725555 106.672310,257.994141 
	C100.214149,256.233521 97.129524,253.116486 97.040634,248.178162 
	C96.955513,243.449402 99.702576,240.270950 105.806137,238.071869 
	C190.773438,207.458694 275.741547,176.847702 361.082611,146.116486 
M216.364578,339.607239 
	C217.890015,327.048523 219.634399,314.510559 220.828201,301.920410 
	C221.277023,297.187073 223.138657,293.989014 226.753448,291.045532 
	C270.407440,255.498840 313.972961,219.843475 357.536499,184.185867 
	C359.350281,182.701263 362.557526,181.092758 360.079315,178.401382 
	C359.070496,177.305771 355.357025,177.452423 353.662323,178.417664 
	C301.172333,208.313095 248.793961,238.404343 196.348267,268.377747 
	C191.893326,270.923828 190.918640,274.200500 192.511230,278.814880 
	C195.440674,287.302521 198.230103,295.838409 201.085495,304.351654 
	C204.944885,315.858276 208.797775,327.367096 212.689972,338.862640 
	C213.263260,340.555786 213.374390,343.689362 216.364578,339.607239 
z"/>
<path fill="#1F8BDB" opacity="1.000000" stroke="none" 
	d="
M216.291595,340.016357 
	C213.374390,343.689362 213.263260,340.555786 212.689972,338.862640 
	C208.797775,327.367096 204.944885,315.858276 201.085495,304.351654 
	C198.230103,295.838409 195.440674,287.302521 192.511230,278.814880 
	C190.918640,274.200500 191.893326,270.923828 196.348267,268.377747 
	C248.793961,238.404343 301.172333,208.313095 353.662323,178.417664 
	C355.357025,177.452423 359.070496,177.305771 360.079315,178.401382 
	C362.557526,181.092758 359.350281,182.701263 357.536499,184.185867 
	C313.972961,219.843475 270.407440,255.498840 226.753448,291.045532 
	C223.138657,293.989014 221.277023,297.187073 220.828201,301.920410 
	C219.634399,314.510559 217.890015,327.048523 216.291595,340.016357 
z"/>
</svg>