<svg version="1.1" id="Layer_1" xmlns="http://www.w3.org/2000/svg" xmlns:xlink="http://www.w3.org/1999/xlink" x="0px" y="0px"
	 width="100%" viewBox="0 0 512 512" enable-background="new 0 0 512 512" xml:space="preserve">
<path fill="#29A71A" opacity="1.000000" stroke="none" 
	d="
M1.000002,460.000000 
	C1.000000,324.976685 1.000000,189.953354 1.384627,54.557812 
	C2.032354,53.996342 2.466328,53.854748 2.534299,53.611069 
	C9.881842,27.269304 26.449831,10.115916 52.978462,2.804385 
	C53.449001,2.674701 53.665150,1.622009 54.000000,1.000001 
	C189.023331,1.000000 324.046661,1.000000 459.442719,1.385055 
	C460.309357,2.149942 460.753418,2.754250 461.304504,2.876636 
	C473.711884,5.632204 484.233765,12.089978 493.057617,20.803194 
	C501.652252,29.290094 507.735718,39.672523 511.032135,51.496403 
	C511.295319,52.440434 512.325989,53.170502 513.000000,54.000000 
	C513.000000,189.023331 513.000000,324.046661 512.615356,459.442535 
	C511.885773,460.148560 511.311890,460.433350 511.229156,460.822540 
	C508.548035,473.438568 502.004944,484.086517 493.190094,493.066010 
	C484.717621,501.696625 474.289520,507.676819 462.500885,511.023834 
	C461.556366,511.291962 460.828552,512.323364 460.000000,513.000000 
	C324.976685,513.000000 189.953354,513.000000 54.557678,512.615234 
	C53.527447,511.827728 52.918095,511.225189 52.204460,511.051788 
	C39.882923,508.057098 29.381973,501.619873 20.584585,492.826019 
	C12.146139,484.390869 6.287413,474.110199 2.976246,462.502472 
	C2.706637,461.557312 1.676663,460.829041 1.000002,460.000000 
M346.680206,124.819778 
	C312.284332,101.769142 274.602631,93.069298 233.581314,98.877953 
	C129.098831,113.672768 68.092827,227.656921 113.290176,323.422150 
	C114.581009,326.157196 114.958557,329.873871 114.370201,332.858459 
	C109.479622,357.667358 104.224464,382.404175 99.164154,407.180023 
	C97.594620,414.864594 100.877579,418.007599 108.427612,416.235809 
	C133.038895,410.460175 157.626266,404.580353 182.275513,398.972198 
	C184.757950,398.407410 187.895828,398.749481 190.227859,399.792450 
	C227.859879,416.622925 266.443481,419.289764 305.641693,406.687988 
	C380.303009,382.685211 426.210724,308.064240 413.711884,230.913147 
	C406.516663,186.499451 383.960236,151.301987 346.680206,124.819778 
z"/>
<path fill="#000000" opacity="1.000000" stroke="none" 
	d="
M513.000000,53.531342 
	C512.325989,53.170502 511.295319,52.440434 511.032135,51.496403 
	C507.735718,39.672523 501.652252,29.290094 493.057617,20.803194 
	C484.233765,12.089978 473.711884,5.632204 461.304504,2.876636 
	C460.753418,2.754250 460.309357,2.149942 459.907715,1.385055 
	C477.593445,1.000000 495.186890,1.000000 513.000000,1.000000 
	C513.000000,18.353611 513.000000,35.708145 513.000000,53.531342 
z"/>
<path fill="#000000" opacity="1.000000" stroke="none" 
	d="
M1.000002,460.468658 
	C1.676663,460.829041 2.706637,461.557312 2.976246,462.502472 
	C6.287413,474.110199 12.146139,484.390869 20.584585,492.826019 
	C29.381973,501.619873 39.882923,508.057098 52.204460,511.051788 
	C52.918095,511.225189 53.527447,511.827728 54.092667,512.615234 
	C36.406567,513.000000 18.813131,513.000000 1.000000,513.000000 
	C1.000000,495.646393 1.000000,478.291840 1.000002,460.468658 
z"/>
<path fill="#000000" opacity="1.000000" stroke="none" 
	d="
M460.468658,513.000000 
	C460.828552,512.323364 461.556366,511.291962 462.500885,511.023834 
	C474.289520,507.676819 484.717621,501.696625 493.190094,493.066010 
	C502.004944,484.086517 508.548035,473.438568 511.229156,460.822540 
	C511.311890,460.433350 511.885773,460.148560 512.615356,459.907532 
	C513.000000,477.593445 513.000000,495.186890 513.000000,513.000000 
	C495.646393,513.000000 478.291840,513.000000 460.468658,513.000000 
z"/>
<path fill="#000000" opacity="1.000000" stroke="none" 
	d="
M53.531342,1.000001 
	C53.665150,1.622009 53.449001,2.674701 52.978462,2.804385 
	C26.449831,10.115916 9.881842,27.269304 2.534299,53.611069 
	C2.466328,53.854748 2.032354,53.996342 1.384627,54.092796 
	C1.000000,36.406563 1.000000,18.813124 1.000000,1.000000 
	C18.353609,1.000000 35.708145,1.000000 53.531342,1.000001 
z"/>
<path fill="#FDFEFD" opacity="1.000000" stroke="none" 
	d="
M346.993011,124.996391 
	C383.960236,151.301987 406.516663,186.499451 413.711884,230.913147 
	C426.210724,308.064240 380.303009,382.685211 305.641693,406.687988 
	C266.443481,419.289764 227.859879,416.622925 190.227859,399.792450 
	C187.895828,398.749481 184.757950,398.407410 182.275513,398.972198 
	C157.626266,404.580353 133.038895,410.460175 108.427612,416.235809 
	C100.877579,418.007599 97.594620,414.864594 99.164154,407.180023 
	C104.224464,382.404175 109.479622,357.667358 114.370201,332.858459 
	C114.958557,329.873871 114.581009,326.157196 113.290176,323.422150 
	C68.092827,227.656921 129.098831,113.672768 233.581314,98.877953 
	C274.602631,93.069298 312.284332,101.769142 346.993011,124.996391 
M249.576111,131.770218 
	C246.099686,132.115509 242.604736,132.331070 239.149567,132.825073 
	C157.461853,144.504578 109.332771,231.898666 144.171722,306.730988 
	C149.842010,318.910461 151.794708,329.792175 147.846710,342.172943 
	C147.142197,344.382294 146.756271,346.698273 146.297363,348.979950 
	C144.736237,356.741882 143.208313,364.510529 141.542801,372.906189 
	C156.103622,369.465332 169.863312,366.391693 183.514343,362.894104 
	C188.475723,361.622925 192.607712,362.036194 197.208313,364.504150 
	C221.054764,377.296448 246.486557,382.350342 273.422852,378.817444 
	C341.026215,369.950653 388.657654,308.102417 380.201538,240.272522 
	C372.129761,175.525543 315.786865,128.337494 249.576111,131.770218 
z"/>
<path fill="#2AA71B" opacity="1.000000" stroke="none" 
	d="
M250.065247,131.730591 
	C315.786865,128.337494 372.129761,175.525543 380.201538,240.272522 
	C388.657654,308.102417 341.026215,369.950653 273.422852,378.817444 
	C246.486557,382.350342 221.054764,377.296448 197.208313,364.504150 
	C192.607712,362.036194 188.475723,361.622925 183.514343,362.894104 
	C169.863312,366.391693 156.103622,369.465332 141.542801,372.906189 
	C143.208313,364.510529 144.736237,356.741882 146.297363,348.979950 
	C146.756271,346.698273 147.142197,344.382294 147.846710,342.172943 
	C151.794708,329.792175 149.842010,318.910461 144.171722,306.730988 
	C109.332771,231.898666 157.461853,144.504578 239.149567,132.825073 
	C242.604736,132.331070 246.099686,132.115509 250.065247,131.730591 
M190.645050,188.150208 
	C180.544312,198.258545 174.720291,210.213913 177.494415,224.634872 
	C179.232712,233.671127 181.411865,243.112762 185.772064,251.068817 
	C203.823975,284.008087 230.622391,308.226440 264.232574,324.604187 
	C272.436554,328.601837 281.811279,331.040344 290.903137,332.209442 
	C315.215942,335.335724 327.272369,328.030731 340.573578,306.987366 
	C344.703339,300.453796 341.353271,292.544098 333.855896,290.109802 
	C327.063721,287.904510 320.171082,285.978699 313.255707,284.188690 
	C298.320282,280.322876 298.230499,277.105988 284.969971,291.216125 
	C280.625488,295.838959 275.915985,296.725922 270.469055,293.670380 
	C250.603851,282.526642 233.920746,267.636841 220.282257,249.429367 
	C216.472275,244.343033 216.916824,239.827850 220.656082,234.725388 
	C222.623215,232.041122 225.355988,229.700623 226.551270,226.726013 
	C227.884720,223.407623 229.288132,219.020493 228.178131,216.015808 
	C224.328018,205.593948 219.638947,195.454941 214.799820,185.434937 
	C211.488678,178.578827 203.514908,177.189255 197.441452,181.951691 
	C195.220993,183.692841 193.239105,185.738220 190.645050,188.150208 
z"/>
<path fill="#FDFEFD" opacity="1.000000" stroke="none" 
	d="
M190.896729,187.897522 
	C193.239105,185.738220 195.220993,183.692841 197.441452,181.951691 
	C203.514908,177.189255 211.488678,178.578827 214.799820,185.434937 
	C219.638947,195.454941 224.328018,205.593948 228.178131,216.015808 
	C229.288132,219.020493 227.884720,223.407623 226.551270,226.726013 
	C225.355988,229.700623 222.623215,232.041122 220.656082,234.725388 
	C216.916824,239.827850 216.472275,244.343033 220.282257,249.429367 
	C233.920746,267.636841 250.603851,282.526642 270.469055,293.670380 
	C275.915985,296.725922 280.625488,295.838959 284.969971,291.216125 
	C298.230499,277.105988 298.320282,280.322876 313.255707,284.188690 
	C320.171082,285.978699 327.063721,287.904510 333.855896,290.109802 
	C341.353271,292.544098 344.703339,300.453796 340.573578,306.987366 
	C327.272369,328.030731 315.215942,335.335724 290.903137,332.209442 
	C281.811279,331.040344 272.436554,328.601837 264.232574,324.604187 
	C230.622391,308.226440 203.823975,284.008087 185.772064,251.068817 
	C181.411865,243.112762 179.232712,233.671127 177.494415,224.634872 
	C174.720291,210.213913 180.544312,198.258545 190.896729,187.897522 
z"/>
</svg>